<svg width="299" height="45" viewBox="0 0 299 45" fill="none" xmlns="http://www.w3.org/2000/svg">
<path d="M8.928 11.412C7.224 12.06 5.904 13.068 4.968 14.436C4.032 15.78 3.564 17.436 3.564 19.404C3.564 20.292 3.648 20.916 3.816 21.276C3.984 21.612 4.068 21.804 4.068 21.852C2.772 21.852 1.8 21.588 1.152 21.06C0.528 20.508 0.216 19.608 0.216 18.36C0.216 16.824 0.84 15.336 2.088 13.896C3.36 12.432 4.98 11.256 6.948 10.368C8.916 9.456 10.884 9 12.852 9C13.188 9 13.668 9.024 14.292 9.072L14.616 31.212L22.176 9.18H26.748L27.072 31.212L34.632 9.18H37.152L27.144 36H21.96L21.528 17.676L14.688 36H9.504L8.928 11.412ZM39.8849 36.144C38.1089 36.144 36.7049 35.688 35.6729 34.776C34.6409 33.864 34.1249 32.424 34.1249 30.456C34.1249 28.824 34.4609 27.012 35.1329 25.02C35.8049 23.028 36.8849 21.312 38.3729 19.872C39.8609 18.408 41.7329 17.676 43.9889 17.676C47.0609 17.676 48.5969 19.596 48.5969 23.436V23.472C48.6689 23.496 48.8009 23.508 48.9929 23.508C49.7849 23.508 50.6969 23.304 51.7289 22.896C52.7609 22.464 53.6969 21.948 54.5369 21.348L54.8609 22.32C54.1649 23.064 53.2529 23.7 52.1249 24.228C51.0209 24.732 49.8089 25.092 48.4889 25.308C48.2969 27.492 47.8049 29.4 47.0129 31.032C46.2209 32.664 45.2009 33.924 43.9529 34.812C42.7049 35.7 41.3489 36.144 39.8849 36.144ZM41.3249 32.904C41.9009 32.904 42.4769 32.58 43.0529 31.932C43.6289 31.26 44.1329 30.36 44.5649 29.232C44.9969 28.08 45.3089 26.808 45.5009 25.416C44.8529 25.272 44.5289 24.768 44.5289 23.904C44.5289 22.92 44.9009 22.272 45.6449 21.96C45.5969 21.168 45.4769 20.628 45.2849 20.34C45.0929 20.028 44.7569 19.872 44.2769 19.872C43.4849 19.872 42.7169 20.448 41.9729 21.6C41.2289 22.752 40.6289 24.132 40.1729 25.74C39.7169 27.348 39.4889 28.764 39.4889 29.988C39.4889 31.14 39.6209 31.92 39.8849 32.328C40.1489 32.712 40.6289 32.904 41.3249 32.904ZM52.8972 18H58.0812L57.6132 20.232C58.4292 19.512 59.1612 18.96 59.8092 18.576C60.4812 18.192 61.2012 18 61.9692 18C62.7372 18 63.3372 18.264 63.7692 18.792C64.2252 19.32 64.4532 19.956 64.4532 20.7C64.4532 21.396 64.2252 22.008 63.7692 22.536C63.3132 23.064 62.6772 23.328 61.8612 23.328C61.3332 23.328 60.9732 23.208 60.7812 22.968C60.6132 22.704 60.4812 22.332 60.3852 21.852C60.3132 21.54 60.2412 21.312 60.1692 21.168C60.0972 21.024 59.9652 20.952 59.7732 20.952C59.2692 20.952 58.8372 21.06 58.4772 21.276C58.1412 21.468 57.6972 21.816 57.1452 22.32L54.2652 36H49.0812L52.8972 18ZM67.5484 36.216C66.3964 36.216 65.4604 35.856 64.7404 35.136C64.0444 34.416 63.6964 33.336 63.6964 31.896C63.6964 31.296 63.7924 30.516 63.9844 29.556L67.8364 11.52L73.1644 10.8L69.0244 30.24C68.9284 30.6 68.8804 30.984 68.8804 31.392C68.8804 31.872 68.9884 32.22 69.2044 32.436C69.4444 32.628 69.8284 32.724 70.3564 32.724C71.0524 32.724 71.7004 32.436 72.3004 31.86C72.9004 31.26 73.3324 30.492 73.5964 29.556H75.1084C74.2204 32.148 73.0804 33.912 71.6884 34.848C70.2964 35.76 68.9164 36.216 67.5484 36.216ZM77.902 36.216C76.534 36.216 75.394 35.748 74.482 34.812C73.57 33.876 73.114 32.412 73.114 30.42C73.114 28.644 73.462 26.784 74.158 24.84C74.878 22.872 75.934 21.216 77.326 19.872C78.742 18.504 80.422 17.82 82.366 17.82C83.35 17.82 84.082 17.988 84.562 18.324C85.042 18.66 85.282 19.104 85.282 19.656V19.8L87.046 11.52L92.374 10.8L88.234 30.24C88.138 30.6 88.09 30.948 88.09 31.284C88.09 32.244 88.582 32.724 89.566 32.724C89.998 32.724 90.382 32.652 90.718 32.508C90.622 33.708 90.19 34.632 89.422 35.28C88.678 35.904 87.79 36.216 86.758 36.216C85.798 36.216 84.982 35.976 84.31 35.496C83.662 34.992 83.23 34.236 83.014 33.228C81.574 35.22 79.87 36.216 77.902 36.216ZM80.242 32.724C80.77 32.724 81.298 32.496 81.826 32.04C82.378 31.584 82.786 30.948 83.05 30.132L83.194 29.556L84.958 21.312C84.742 20.472 84.25 20.052 83.482 20.052C82.522 20.052 81.658 20.616 80.89 21.744C80.122 22.848 79.522 24.192 79.09 25.776C78.658 27.336 78.442 28.716 78.442 29.916C78.442 31.116 78.61 31.884 78.946 32.22C79.306 32.556 79.738 32.724 80.242 32.724ZM94.1591 16.956C94.6631 16.428 95.0591 15.936 95.3471 15.48C95.6351 15.024 95.7791 14.652 95.7791 14.364C95.7791 14.196 95.7191 14.04 95.5991 13.896C95.5031 13.752 95.3471 13.596 95.1311 13.428C94.7951 13.164 94.5311 12.888 94.3391 12.6C94.1471 12.312 94.0511 11.928 94.0511 11.448C94.0511 10.704 94.2791 10.104 94.7351 9.648C95.1911 9.168 95.7671 8.928 96.4631 8.928C97.2071 8.928 97.8071 9.168 98.2631 9.648C98.7431 10.104 98.9831 10.704 98.9831 11.448C98.9831 12.384 98.5871 13.416 97.7951 14.544C97.0271 15.648 95.9951 16.632 94.6991 17.496L94.1591 16.956ZM103.385 36.216C102.233 36.216 101.261 36 100.469 35.568C99.6772 35.112 99.0892 34.536 98.7052 33.84C98.3212 33.12 98.1292 32.376 98.1292 31.608C98.1292 30.816 98.3212 30.132 98.7052 29.556C99.0652 28.956 99.5093 28.524 100.037 28.26C100.973 26.58 101.789 24.888 102.485 23.184C103.181 21.456 103.841 19.596 104.465 17.604L109.793 16.884C109.913 19.956 110.117 23.28 110.405 26.856C110.525 28.296 110.585 29.34 110.585 29.988C110.585 31.452 110.213 32.652 109.469 33.588C108.725 34.524 107.801 35.196 106.697 35.604C105.617 36.012 104.513 36.216 103.385 36.216ZM102.233 33.372C103.121 33.372 103.865 33.108 104.465 32.58C105.065 32.052 105.365 31.2 105.365 30.024C105.365 29.304 105.293 28.296 105.149 27C104.909 24.264 104.753 22.428 104.681 21.492C104.105 23.388 103.133 25.656 101.765 28.296C102.317 28.584 102.593 29.004 102.593 29.556C102.593 30.012 102.437 30.42 102.125 30.78C101.837 31.14 101.465 31.32 101.009 31.32C100.505 31.32 100.181 31.164 100.037 30.852C100.037 31.716 100.205 32.352 100.541 32.76C100.901 33.168 101.465 33.372 102.233 33.372Z" fill="#7E2D27"/>
<path d="M126.757 13.104L132.085 12.384L129.529 24.408C130.681 24.312 131.737 23.808 132.697 22.896C133.681 21.984 134.449 20.856 135.001 19.512C135.553 18.168 135.829 16.848 135.829 15.552C135.829 14.112 135.457 12.936 134.713 12.024C133.969 11.112 132.853 10.656 131.365 10.656C128.437 10.656 126.145 11.424 124.489 12.96C122.857 14.496 122.041 16.644 122.041 19.404C122.041 20.292 122.125 20.916 122.293 21.276C122.461 21.612 122.545 21.804 122.545 21.852C121.249 21.852 120.277 21.588 119.629 21.06C119.005 20.508 118.693 19.608 118.693 18.36C118.693 16.824 119.317 15.336 120.565 13.896C121.837 12.432 123.457 11.256 125.425 10.368C127.393 9.456 129.361 9 131.329 9C133.225 9 134.809 9.324 136.081 9.972C137.353 10.62 138.289 11.484 138.889 12.564C139.513 13.62 139.825 14.796 139.825 16.092C139.825 17.652 139.393 19.176 138.529 20.664C137.689 22.152 136.477 23.376 134.893 24.336C133.309 25.272 131.485 25.74 129.421 25.74H129.241L127.045 36H121.861L126.757 13.104ZM144.369 36.144C142.593 36.144 141.189 35.688 140.157 34.776C139.125 33.864 138.609 32.424 138.609 30.456C138.609 28.824 138.945 27.012 139.617 25.02C140.289 23.028 141.369 21.312 142.857 19.872C144.345 18.408 146.217 17.676 148.473 17.676C151.545 17.676 153.081 19.596 153.081 23.436V23.472C153.153 23.496 153.285 23.508 153.477 23.508C154.269 23.508 155.181 23.304 156.213 22.896C157.245 22.464 158.181 21.948 159.021 21.348L159.345 22.32C158.649 23.064 157.737 23.7 156.609 24.228C155.505 24.732 154.293 25.092 152.973 25.308C152.781 27.492 152.289 29.4 151.497 31.032C150.705 32.664 149.685 33.924 148.437 34.812C147.189 35.7 145.833 36.144 144.369 36.144ZM145.809 32.904C146.385 32.904 146.961 32.58 147.537 31.932C148.113 31.26 148.617 30.36 149.049 29.232C149.481 28.08 149.793 26.808 149.985 25.416C149.337 25.272 149.013 24.768 149.013 23.904C149.013 22.92 149.385 22.272 150.129 21.96C150.081 21.168 149.961 20.628 149.769 20.34C149.577 20.028 149.241 19.872 148.761 19.872C147.969 19.872 147.201 20.448 146.457 21.6C145.713 22.752 145.113 24.132 144.657 25.74C144.201 27.348 143.973 28.764 143.973 29.988C143.973 31.14 144.105 31.92 144.369 32.328C144.633 32.712 145.113 32.904 145.809 32.904ZM157.67 16.668H162.854L162.278 19.368C163.478 18.336 164.882 17.82 166.49 17.82C167.834 17.82 168.902 18.264 169.694 19.152C170.486 20.04 170.882 21.492 170.882 23.508C170.882 25.404 170.606 27.324 170.054 29.268C169.502 31.188 168.566 32.832 167.246 34.2C165.926 35.544 164.186 36.216 162.026 36.216C160.49 36.216 159.47 35.784 158.966 34.92L157.094 43.704L151.658 45L157.67 16.668ZM160.91 33.084C162.062 33.084 163.01 32.544 163.754 31.464C164.522 30.384 165.074 29.1 165.41 27.612C165.77 26.1 165.95 24.696 165.95 23.4C165.95 21.408 165.35 20.412 164.15 20.412C163.718 20.412 163.274 20.568 162.818 20.88C162.386 21.192 162.002 21.624 161.666 22.176L159.542 32.256C159.734 32.808 160.19 33.084 160.91 33.084ZM175.337 36.216C174.185 36.216 173.249 35.856 172.529 35.136C171.833 34.416 171.485 33.336 171.485 31.896C171.485 31.296 171.581 30.516 171.773 29.556L174.221 18H179.405L176.813 30.24C176.741 30.6 176.705 30.936 176.705 31.248C176.705 32.232 177.065 32.724 177.785 32.724C178.457 32.724 179.033 32.448 179.513 31.896C179.993 31.32 180.377 30.54 180.665 29.556L183.113 18H188.297L185.705 30.24C185.609 30.6 185.561 30.984 185.561 31.392C185.561 31.872 185.669 32.22 185.885 32.436C186.125 32.628 186.509 32.724 187.037 32.724C187.709 32.724 188.285 32.436 188.765 31.86C189.269 31.284 189.665 30.516 189.953 29.556H191.465C190.577 32.148 189.473 33.912 188.153 34.848C186.857 35.76 185.549 36.216 184.229 36.216C183.197 36.216 182.369 35.928 181.745 35.352C181.145 34.776 180.785 33.924 180.665 32.796C179.849 34.116 178.985 35.016 178.073 35.496C177.185 35.976 176.273 36.216 175.337 36.216ZM193.513 36.216C192.361 36.216 191.425 35.856 190.705 35.136C190.009 34.416 189.661 33.336 189.661 31.896C189.661 31.296 189.757 30.516 189.949 29.556L193.801 11.52L199.129 10.8L194.989 30.24C194.893 30.6 194.845 30.984 194.845 31.392C194.845 31.872 194.953 32.22 195.169 32.436C195.409 32.628 195.793 32.724 196.321 32.724C197.017 32.724 197.665 32.436 198.265 31.86C198.865 31.26 199.297 30.492 199.561 29.556H201.073C200.185 32.148 199.045 33.912 197.653 34.848C196.261 35.76 194.881 36.216 193.513 36.216ZM203.867 36.216C202.499 36.216 201.359 35.748 200.447 34.812C199.535 33.876 199.079 32.412 199.079 30.42C199.079 28.644 199.427 26.784 200.123 24.84C200.843 22.872 201.899 21.216 203.291 19.872C204.707 18.504 206.387 17.82 208.331 17.82C209.315 17.82 210.047 17.988 210.527 18.324C211.007 18.66 211.247 19.104 211.247 19.656V19.908L211.643 18H216.827L214.235 30.24C214.139 30.6 214.091 30.984 214.091 31.392C214.091 32.424 214.583 32.94 215.567 32.94C216.239 32.94 216.815 32.628 217.295 32.004C217.799 31.38 218.195 30.564 218.483 29.556H219.995C219.107 32.148 218.003 33.912 216.683 34.848C215.387 35.76 214.079 36.216 212.759 36.216C211.751 36.216 210.935 35.94 210.311 35.388C209.711 34.812 209.351 33.984 209.231 32.904C208.535 33.888 207.755 34.692 206.891 35.316C206.051 35.916 205.043 36.216 203.867 36.216ZM206.207 32.724C206.807 32.724 207.395 32.448 207.971 31.896C208.571 31.32 208.979 30.54 209.195 29.556L210.923 21.42C210.923 21.108 210.803 20.808 210.563 20.52C210.323 20.208 209.951 20.052 209.447 20.052C208.487 20.052 207.623 20.616 206.855 21.744C206.087 22.848 205.487 24.192 205.055 25.776C204.623 27.336 204.407 28.716 204.407 29.916C204.407 31.116 204.575 31.884 204.911 32.22C205.271 32.556 205.703 32.724 206.207 32.724ZM222.06 36.216C220.908 36.216 219.972 35.856 219.252 35.136C218.556 34.416 218.208 33.336 218.208 31.896C218.208 31.296 218.304 30.516 218.496 29.556L220.656 19.44H219.468L219.756 18H220.944L222.024 13.032L227.352 12.312L226.128 18H228.288L228 19.44H225.84L223.536 30.24C223.44 30.6 223.392 30.984 223.392 31.392C223.392 31.872 223.5 32.22 223.716 32.436C223.956 32.628 224.34 32.724 224.868 32.724C225.564 32.724 226.212 32.436 226.812 31.86C227.412 31.26 227.844 30.492 228.108 29.556H229.62C228.732 32.148 227.592 33.912 226.2 34.848C224.808 35.76 223.428 36.216 222.06 36.216ZM234.106 16.056C233.314 16.056 232.642 15.78 232.09 15.228C231.538 14.676 231.262 14.004 231.262 13.212C231.262 12.42 231.538 11.748 232.09 11.196C232.642 10.62 233.314 10.332 234.106 10.332C234.898 10.332 235.57 10.62 236.122 11.196C236.698 11.748 236.986 12.42 236.986 13.212C236.986 14.004 236.698 14.676 236.122 15.228C235.57 15.78 234.898 16.056 234.106 16.056ZM231.658 36.216C230.506 36.216 229.57 35.856 228.85 35.136C228.154 34.416 227.806 33.336 227.806 31.896C227.806 31.296 227.902 30.516 228.094 29.556L230.542 18H235.726L233.134 30.24C233.038 30.6 232.99 30.984 232.99 31.392C232.99 31.872 233.098 32.22 233.314 32.436C233.554 32.628 233.938 32.724 234.466 32.724C235.162 32.724 235.81 32.436 236.41 31.86C237.01 31.26 237.442 30.492 237.706 29.556H239.218C238.33 32.148 237.19 33.912 235.798 34.848C234.406 35.76 233.026 36.216 231.658 36.216ZM242.947 36.144C241.171 36.144 239.767 35.688 238.735 34.776C237.703 33.864 237.187 32.424 237.187 30.456C237.187 28.824 237.523 27.012 238.195 25.02C238.867 23.028 239.947 21.312 241.435 19.872C242.923 18.408 244.795 17.676 247.051 17.676C250.123 17.676 251.659 19.596 251.659 23.436V23.472C251.731 23.496 251.863 23.508 252.055 23.508C252.847 23.508 253.759 23.304 254.791 22.896C255.823 22.464 256.759 21.948 257.599 21.348L257.923 22.32C257.227 23.064 256.315 23.7 255.187 24.228C254.083 24.732 252.871 25.092 251.551 25.308C251.359 27.492 250.867 29.4 250.075 31.032C249.283 32.664 248.263 33.924 247.015 34.812C245.767 35.7 244.411 36.144 242.947 36.144ZM244.387 32.904C244.963 32.904 245.539 32.58 246.115 31.932C246.691 31.26 247.195 30.36 247.627 29.232C248.059 28.08 248.371 26.808 248.563 25.416C247.915 25.272 247.591 24.768 247.591 23.904C247.591 22.92 247.963 22.272 248.707 21.96C248.659 21.168 248.539 20.628 248.347 20.34C248.155 20.028 247.819 19.872 247.339 19.872C246.547 19.872 245.779 20.448 245.035 21.6C244.291 22.752 243.691 24.132 243.235 25.74C242.779 27.348 242.551 28.764 242.551 29.988C242.551 31.14 242.683 31.92 242.947 32.328C243.211 32.712 243.691 32.904 244.387 32.904ZM265.896 36.216C264.624 36.216 263.7 35.832 263.124 35.064C262.548 34.296 262.26 33.324 262.26 32.148C262.26 31.644 262.32 31.08 262.44 30.456C262.56 29.808 262.68 29.184 262.8 28.584C262.944 27.984 263.04 27.6 263.088 27.432C263.28 26.592 263.46 25.764 263.628 24.948C263.796 24.132 263.88 23.472 263.88 22.968C263.88 21.744 263.448 21.132 262.584 21.132C261.96 21.132 261.408 21.444 260.928 22.068C260.448 22.668 260.064 23.46 259.776 24.444L257.328 36H252.144L255.96 18H261.144L260.748 19.872C261.948 18.528 263.352 17.856 264.96 17.856C266.184 17.856 267.156 18.192 267.876 18.864C268.596 19.536 268.956 20.556 268.956 21.924C268.956 22.62 268.872 23.4 268.704 24.264C268.536 25.104 268.296 26.136 267.984 27.36C267.792 28.104 267.612 28.836 267.444 29.556C267.3 30.252 267.228 30.804 267.228 31.212C267.228 31.692 267.336 32.064 267.552 32.328C267.768 32.592 268.14 32.724 268.668 32.724C269.244 32.724 269.64 32.652 269.856 32.508C269.712 33.732 269.268 34.656 268.524 35.28C267.804 35.904 266.928 36.216 265.896 36.216Z" fill="#C96C66"/>
<path fill-rule="evenodd" clip-rule="evenodd" d="M277 12C277 6.48 281.47 2 286.99 2C292.52 2 297 6.48 297 12C297 17.52 292.52 22 286.99 22C281.47 22 277 17.52 277 12ZM290.97 8H293.92C292.96 6.35 291.43 5.07 289.59 4.44C290.19 5.55 290.65 6.75 290.97 8ZM287 4.04C287.83 5.24 288.48 6.57 288.91 8H285.09C285.52 6.57 286.17 5.24 287 4.04ZM279 12C279 12.69 279.1 13.36 279.26 14H282.64C282.56 13.34 282.5 12.68 282.5 12C282.5 11.32 282.56 10.66 282.64 10H279.26C279.1 10.64 279 11.31 279 12ZM280.08 16H283.03C283.35 17.25 283.81 18.45 284.41 19.56C282.57 18.93 281.04 17.66 280.08 16ZM280.08 8H283.03C283.35 6.75 283.81 5.55 284.41 4.44C282.57 5.07 281.04 6.34 280.08 8ZM287 19.96C286.17 18.76 285.52 17.43 285.09 16H288.91C288.48 17.43 287.83 18.76 287 19.96ZM284.5 12C284.5 12.68 284.57 13.34 284.66 14H289.34C289.43 13.34 289.5 12.68 289.5 12C289.5 11.32 289.43 10.65 289.34 10H284.66C284.57 10.65 284.5 11.32 284.5 12ZM289.59 19.56C290.19 18.45 290.65 17.25 290.97 16H293.92C292.96 17.65 291.43 18.93 289.59 19.56ZM291.5 12C291.5 12.68 291.44 13.34 291.36 14H294.74C294.9 13.36 295 12.69 295 12C295 11.31 294.9 10.64 294.74 10H291.36C291.44 10.66 291.5 11.32 291.5 12Z" fill="#B9534A"/>
</svg>
